<?xml version="1.0" encoding="us-ascii" standalone="no"?><svg xmlns="http://www.w3.org/2000/svg" xmlns:xlink="http://www.w3.org/1999/xlink" contentStyleType="text/css" height="789px" preserveAspectRatio="none" style="width:1761px;height:789px;background:#FFFFFF;" version="1.1" viewBox="0 0 1761 789" width="1761px" zoomAndPan="magnify"><defs/><g><!--cluster MODEL--><g id="cluster_MODEL"><path d="M8.5,145.49 L61.5,145.49 A3.75,3.75 0 0 1 64,147.99 L71,167.9783 L1160.5,167.9783 A2.5,2.5 0 0 1 1163,170.4783 L1163,780.34 A2.5,2.5 0 0 1 1160.5,782.84 L8.5,782.84 A2.5,2.5 0 0 1 6,780.34 L6,147.99 A2.5,2.5 0 0 1 8.5,145.49 " fill="none" style="stroke:#000000;stroke-width:1.5;"/><line style="stroke:#000000;stroke-width:1.5;" x1="6" x2="71" y1="167.9783" y2="167.9783"/><text fill="#000000" font-family="sans-serif" font-size="14" font-weight="bold" lengthAdjust="spacing" textLength="52" x="10" y="161.0252">MODEL</text></g><!--cluster VIEW--><g id="cluster_VIEW"><path d="M1189.5,178.47 L1226.5,178.47 A3.75,3.75 0 0 1 1229,180.97 L1236,200.9583 L1751.5,200.9583 A2.5,2.5 0 0 1 1754,203.4583 L1754,622.88 A2.5,2.5 0 0 1 1751.5,625.38 L1189.5,625.38 A2.5,2.5 0 0 1 1187,622.88 L1187,180.97 A2.5,2.5 0 0 1 1189.5,178.47 " fill="none" style="stroke:#000000;stroke-width:1.5;"/><line style="stroke:#000000;stroke-width:1.5;" x1="1187" x2="1236" y1="200.9583" y2="200.9583"/><text fill="#000000" font-family="sans-serif" font-size="14" font-weight="bold" lengthAdjust="spacing" textLength="36" x="1191" y="194.0052">VIEW</text></g><!--cluster CONTROLLER--><g id="cluster_CONTROLLER"><path d="M390.5,6 L490.5,6 A3.75,3.75 0 0 1 493,8.5 L500,28.4883 L1250.5,28.4883 A2.5,2.5 0 0 1 1253,30.9883 L1253,118.99 A2.5,2.5 0 0 1 1250.5,121.49 L390.5,121.49 A2.5,2.5 0 0 1 388,118.99 L388,8.5 A2.5,2.5 0 0 1 390.5,6 " fill="none" style="stroke:#000000;stroke-width:1.5;"/><line style="stroke:#000000;stroke-width:1.5;" x1="388" x2="500" y1="28.4883" y2="28.4883"/><text fill="#000000" font-family="sans-serif" font-size="14" font-weight="bold" lengthAdjust="spacing" textLength="99" x="392" y="21.5352">CONTROLLER</text></g><!--class PianoModel--><g id="elem_PianoModel"><rect codeLine="3" fill="#F1F1F1" height="130.4414" id="PianoModel" rx="2.5" ry="2.5" style="stroke:#181818;stroke-width:0.5;" width="196" x="622" y="180.49"/><ellipse cx="675.75" cy="196.49" fill="#ADD1B2" rx="11" ry="11" style="stroke:#181818;stroke-width:1.0;"/><path d="M678.2231,202.6331 Q677.6421,202.9319 677.0029,203.0813 Q676.3638,203.2307 675.6582,203.2307 Q673.1514,203.2307 671.8315,201.5789 Q670.5117,199.927 670.5117,196.8059 Q670.5117,193.6765 671.8315,192.0247 Q673.1514,190.3728 675.6582,190.3728 Q676.3638,190.3728 677.0112,190.5222 Q677.6587,190.6716 678.2231,190.9705 L678.2231,193.6931 Q677.5923,193.1121 676.9988,192.8423 Q676.4053,192.5725 675.7744,192.5725 Q674.4297,192.5725 673.7449,193.6392 Q673.0601,194.7058 673.0601,196.8059 Q673.0601,198.8977 673.7449,199.9644 Q674.4297,201.031 675.7744,201.031 Q676.4053,201.031 676.9988,200.7612 Q677.5923,200.4915 678.2231,199.9104 Z " fill="#000000"/><text fill="#000000" font-family="sans-serif" font-size="14" lengthAdjust="spacing" textLength="80" x="696.25" y="201.781">PianoModel</text><line style="stroke:#181818;stroke-width:0.5;" x1="623" x2="817" y1="212.49" y2="212.49"/><line style="stroke:#181818;stroke-width:0.5;" x1="623" x2="817" y1="220.49" y2="220.49"/><ellipse cx="633" cy="234.2341" fill="#84BE84" rx="3" ry="3" style="stroke:#038048;stroke-width:1.0;"/><text fill="#000000" font-family="sans-serif" font-size="14" lengthAdjust="spacing" textLength="111" x="642" y="238.0252">startRecording()</text><ellipse cx="633" cy="250.7224" fill="#84BE84" rx="3" ry="3" style="stroke:#038048;stroke-width:1.0;"/><text fill="#000000" font-family="sans-serif" font-size="14" lengthAdjust="spacing" textLength="110" x="642" y="254.5134">stopRecording()</text><ellipse cx="633" cy="267.2107" fill="#84BE84" rx="3" ry="3" style="stroke:#038048;stroke-width:1.0;"/><text fill="#000000" font-family="sans-serif" font-size="14" lengthAdjust="spacing" textLength="88" x="642" y="271.0017">playNote(int)</text><ellipse cx="633" cy="283.699" fill="#84BE84" rx="3" ry="3" style="stroke:#038048;stroke-width:1.0;"/><text fill="#000000" font-family="sans-serif" font-size="14" lengthAdjust="spacing" textLength="99" x="642" y="287.49">playChord(int)</text><ellipse cx="633" cy="300.1873" fill="#84BE84" rx="3" ry="3" style="stroke:#038048;stroke-width:1.0;"/><text fill="#000000" font-family="sans-serif" font-size="14" lengthAdjust="spacing" textLength="170" x="642" y="303.9783">startPlayback(Recording)</text></g><!--class Recorder--><g id="elem_Recorder"><rect codeLine="11" fill="#F1F1F1" height="80.9766" id="Recorder" rx="2.5" ry="2.5" style="stroke:#181818;stroke-width:0.5;" width="228" x="527" y="536.64"/><ellipse cx="605.75" cy="552.64" fill="#ADD1B2" rx="11" ry="11" style="stroke:#181818;stroke-width:1.0;"/><path d="M608.2231,558.7831 Q607.6421,559.0819 607.0029,559.2313 Q606.3638,559.3807 605.6582,559.3807 Q603.1514,559.3807 601.8315,557.7289 Q600.5117,556.077 600.5117,552.9559 Q600.5117,549.8265 601.8315,548.1747 Q603.1514,546.5228 605.6582,546.5228 Q606.3638,546.5228 607.0112,546.6722 Q607.6587,546.8216 608.2231,547.1205 L608.2231,549.8431 Q607.5923,549.2621 606.9988,548.9923 Q606.4053,548.7225 605.7744,548.7225 Q604.4297,548.7225 603.7449,549.7892 Q603.0601,550.8558 603.0601,552.9559 Q603.0601,555.0477 603.7449,556.1144 Q604.4297,557.181 605.7744,557.181 Q606.4053,557.181 606.9988,556.9112 Q607.5923,556.6415 608.2231,556.0604 Z " fill="#000000"/><text fill="#000000" font-family="sans-serif" font-size="14" lengthAdjust="spacing" textLength="62" x="626.25" y="557.931">Recorder</text><line style="stroke:#181818;stroke-width:0.5;" x1="528" x2="754" y1="568.64" y2="568.64"/><line style="stroke:#181818;stroke-width:0.5;" x1="528" x2="754" y1="576.64" y2="576.64"/><ellipse cx="538" cy="590.3841" fill="#84BE84" rx="3" ry="3" style="stroke:#038048;stroke-width:1.0;"/><text fill="#000000" font-family="sans-serif" font-size="14" lengthAdjust="spacing" textLength="111" x="547" y="594.1752">startRecording()</text><ellipse cx="538" cy="606.8724" fill="#84BE84" rx="3" ry="3" style="stroke:#038048;stroke-width:1.0;"/><text fill="#000000" font-family="sans-serif" font-size="14" lengthAdjust="spacing" textLength="202" x="547" y="610.6634">recordNoteOn(int): NoteEvent</text></g><!--class Player--><g id="elem_Player"><rect codeLine="16" fill="#F1F1F1" height="80.9766" id="Player" rx="2.5" ry="2.5" style="stroke:#181818;stroke-width:0.5;" width="272" x="875" y="379.18"/><ellipse cx="986.25" cy="395.18" fill="#ADD1B2" rx="11" ry="11" style="stroke:#181818;stroke-width:1.0;"/><path d="M988.7231,401.3231 Q988.1421,401.6219 987.5029,401.7713 Q986.8638,401.9207 986.1582,401.9207 Q983.6514,401.9207 982.3315,400.2689 Q981.0117,398.617 981.0117,395.4959 Q981.0117,392.3665 982.3315,390.7147 Q983.6514,389.0628 986.1582,389.0628 Q986.8638,389.0628 987.5112,389.2122 Q988.1587,389.3616 988.7231,389.6605 L988.7231,392.3831 Q988.0923,391.8021 987.4988,391.5323 Q986.9053,391.2625 986.2744,391.2625 Q984.9297,391.2625 984.2449,392.3292 Q983.5601,393.3958 983.5601,395.4959 Q983.5601,397.5877 984.2449,398.6544 Q984.9297,399.721 986.2744,399.721 Q986.9053,399.721 987.4988,399.4512 Q988.0923,399.1815 988.7231,398.6004 Z " fill="#000000"/><text fill="#000000" font-family="sans-serif" font-size="14" lengthAdjust="spacing" textLength="41" x="1006.75" y="400.471">Player</text><line style="stroke:#181818;stroke-width:0.5;" x1="876" x2="1146" y1="411.18" y2="411.18"/><line style="stroke:#181818;stroke-width:0.5;" x1="876" x2="1146" y1="419.18" y2="419.18"/><ellipse cx="886" cy="432.9241" fill="#84BE84" rx="3" ry="3" style="stroke:#038048;stroke-width:1.0;"/><text fill="#000000" font-family="sans-serif" font-size="14" lengthAdjust="spacing" textLength="246" x="895" y="436.7152">startPlayback(EventSource, Handler)</text><ellipse cx="886" cy="449.4124" fill="#84BE84" rx="3" ry="3" style="stroke:#038048;stroke-width:1.0;"/><text fill="#000000" font-family="sans-serif" font-size="14" lengthAdjust="spacing" textLength="99" x="895" y="453.2034">stopPlayback()</text></g><!--class Recording--><g id="elem_Recording"><rect codeLine="21" fill="#F1F1F1" height="97.4648" id="Recording" rx="2.5" ry="2.5" style="stroke:#181818;stroke-width:0.5;" width="224" x="71" y="528.4"/><ellipse cx="143.75" cy="544.4" fill="#ADD1B2" rx="11" ry="11" style="stroke:#181818;stroke-width:1.0;"/><path d="M146.2231,550.5431 Q145.6421,550.8419 145.0029,550.9913 Q144.3638,551.1407 143.6582,551.1407 Q141.1514,551.1407 139.8315,549.4889 Q138.5117,547.837 138.5117,544.7159 Q138.5117,541.5865 139.8315,539.9347 Q141.1514,538.2828 143.6582,538.2828 Q144.3638,538.2828 145.0112,538.4322 Q145.6587,538.5816 146.2231,538.8805 L146.2231,541.6031 Q145.5923,541.0221 144.9988,540.7523 Q144.4053,540.4825 143.7744,540.4825 Q142.4297,540.4825 141.7449,541.5492 Q141.0601,542.6158 141.0601,544.7159 Q141.0601,546.8077 141.7449,547.8744 Q142.4297,548.941 143.7744,548.941 Q144.4053,548.941 144.9988,548.6712 Q145.5923,548.4015 146.2231,547.8204 Z " fill="#000000"/><text fill="#000000" font-family="sans-serif" font-size="14" lengthAdjust="spacing" textLength="70" x="164.25" y="549.691">Recording</text><line style="stroke:#181818;stroke-width:0.5;" x1="72" x2="294" y1="560.4" y2="560.4"/><line style="stroke:#181818;stroke-width:0.5;" x1="72" x2="294" y1="568.4" y2="568.4"/><ellipse cx="82" cy="582.1441" fill="#84BE84" rx="3" ry="3" style="stroke:#038048;stroke-width:1.0;"/><text fill="#000000" font-family="sans-serif" font-size="14" lengthAdjust="spacing" textLength="120" x="91" y="585.9352">getName(): String</text><ellipse cx="82" cy="598.6324" fill="#84BE84" rx="3" ry="3" style="stroke:#038048;stroke-width:1.0;"/><text fill="#000000" font-family="sans-serif" font-size="14" lengthAdjust="spacing" textLength="174" x="91" y="602.4234">addNoteEvent(NoteEvent)</text><ellipse cx="82" cy="615.1207" fill="#84BE84" rx="3" ry="3" style="stroke:#038048;stroke-width:1.0;"/><text fill="#000000" font-family="sans-serif" font-size="14" lengthAdjust="spacing" textLength="198" x="91" y="618.9117">getEvents(): List&lt;NoteEvent&gt;</text></g><!--class NoteEvent--><g id="elem_NoteEvent"><rect codeLine="27" fill="#F1F1F1" height="80.9766" id="NoteEvent" rx="2.5" ry="2.5" style="stroke:#181818;stroke-width:0.5;" width="173" x="325.5" y="685.86"/><ellipse cx="373.25" cy="701.86" fill="#ADD1B2" rx="11" ry="11" style="stroke:#181818;stroke-width:1.0;"/><path d="M375.7231,708.0031 Q375.1421,708.3019 374.5029,708.4513 Q373.8638,708.6007 373.1582,708.6007 Q370.6514,708.6007 369.3315,706.9489 Q368.0117,705.297 368.0117,702.1759 Q368.0117,699.0465 369.3315,697.3947 Q370.6514,695.7428 373.1582,695.7428 Q373.8638,695.7428 374.5112,695.8922 Q375.1587,696.0416 375.7231,696.3405 L375.7231,699.0631 Q375.0923,698.4821 374.4988,698.2123 Q373.9053,697.9425 373.2744,697.9425 Q371.9297,697.9425 371.2449,699.0092 Q370.5601,700.0758 370.5601,702.1759 Q370.5601,704.2677 371.2449,705.3344 Q371.9297,706.401 373.2744,706.401 Q373.9053,706.401 374.4988,706.1312 Q375.0923,705.8615 375.7231,705.2804 Z " fill="#000000"/><text fill="#000000" font-family="sans-serif" font-size="14" lengthAdjust="spacing" textLength="69" x="393.75" y="707.151">NoteEvent</text><line style="stroke:#181818;stroke-width:0.5;" x1="326.5" x2="497.5" y1="717.86" y2="717.86"/><line style="stroke:#181818;stroke-width:0.5;" x1="326.5" x2="497.5" y1="725.86" y2="725.86"/><ellipse cx="336.5" cy="739.6041" fill="#84BE84" rx="3" ry="3" style="stroke:#038048;stroke-width:1.0;"/><text fill="#000000" font-family="sans-serif" font-size="14" lengthAdjust="spacing" textLength="119" x="345.5" y="743.3952">getMidiNote(): int</text><ellipse cx="336.5" cy="756.0924" fill="#84BE84" rx="3" ry="3" style="stroke:#038048;stroke-width:1.0;"/><text fill="#000000" font-family="sans-serif" font-size="14" lengthAdjust="spacing" textLength="147" x="345.5" y="759.8834">getTimestamp(): long</text></g><!--class RecordingManager--><g id="elem_RecordingManager"><rect codeLine="32" fill="#F1F1F1" height="80.9766" id="RecordingManager" rx="2.5" ry="2.5" style="stroke:#181818;stroke-width:0.5;" width="247" x="59.5" y="379.18"/><ellipse cx="113.75" cy="395.18" fill="#ADD1B2" rx="11" ry="11" style="stroke:#181818;stroke-width:1.0;"/><path d="M116.2231,401.3231 Q115.6421,401.6219 115.0029,401.7713 Q114.3638,401.9207 113.6582,401.9207 Q111.1514,401.9207 109.8315,400.2689 Q108.5117,398.617 108.5117,395.4959 Q108.5117,392.3665 109.8315,390.7147 Q111.1514,389.0628 113.6582,389.0628 Q114.3638,389.0628 115.0112,389.2122 Q115.6587,389.3616 116.2231,389.6605 L116.2231,392.3831 Q115.5923,391.8021 114.9988,391.5323 Q114.4053,391.2625 113.7744,391.2625 Q112.4297,391.2625 111.7449,392.3292 Q111.0601,393.3958 111.0601,395.4959 Q111.0601,397.5877 111.7449,398.6544 Q112.4297,399.721 113.7744,399.721 Q114.4053,399.721 114.9988,399.4512 Q115.5923,399.1815 116.2231,398.6004 Z " fill="#000000"/><text fill="#000000" font-family="sans-serif" font-size="14" lengthAdjust="spacing" textLength="130" x="134.25" y="400.471">RecordingManager</text><line style="stroke:#181818;stroke-width:0.5;" x1="60.5" x2="305.5" y1="411.18" y2="411.18"/><line style="stroke:#181818;stroke-width:0.5;" x1="60.5" x2="305.5" y1="419.18" y2="419.18"/><ellipse cx="70.5" cy="432.9241" fill="#84BE84" rx="3" ry="3" style="stroke:#038048;stroke-width:1.0;"/><text fill="#000000" font-family="sans-serif" font-size="14" lengthAdjust="spacing" textLength="189" x="79.5" y="436.7152">startRecording(): Recording</text><ellipse cx="70.5" cy="449.4124" fill="#84BE84" rx="3" ry="3" style="stroke:#038048;stroke-width:1.0;"/><text fill="#000000" font-family="sans-serif" font-size="14" lengthAdjust="spacing" textLength="221" x="79.5" y="453.2034">getRecording(String): Recording</text></g><!--class ChordManager--><g id="elem_ChordManager"><rect codeLine="37" fill="#F1F1F1" height="64.4883" id="ChordManager" rx="2.5" ry="2.5" style="stroke:#181818;stroke-width:0.5;" width="260" x="342" y="387.42"/><ellipse cx="416.25" cy="403.42" fill="#ADD1B2" rx="11" ry="11" style="stroke:#181818;stroke-width:1.0;"/><path d="M418.7231,409.5631 Q418.1421,409.8619 417.5029,410.0113 Q416.8638,410.1607 416.1582,410.1607 Q413.6514,410.1607 412.3315,408.5089 Q411.0117,406.857 411.0117,403.7359 Q411.0117,400.6065 412.3315,398.9547 Q413.6514,397.3028 416.1582,397.3028 Q416.8638,397.3028 417.5112,397.4522 Q418.1587,397.6016 418.7231,397.9005 L418.7231,400.6231 Q418.0923,400.0421 417.4988,399.7723 Q416.9053,399.5025 416.2744,399.5025 Q414.9297,399.5025 414.2449,400.5692 Q413.5601,401.6358 413.5601,403.7359 Q413.5601,405.8277 414.2449,406.8944 Q414.9297,407.961 416.2744,407.961 Q416.9053,407.961 417.4988,407.6912 Q418.0923,407.4215 418.7231,406.8404 Z " fill="#000000"/><text fill="#000000" font-family="sans-serif" font-size="14" lengthAdjust="spacing" textLength="103" x="436.75" y="408.711">ChordManager</text><line style="stroke:#181818;stroke-width:0.5;" x1="343" x2="601" y1="419.42" y2="419.42"/><line style="stroke:#181818;stroke-width:0.5;" x1="343" x2="601" y1="427.42" y2="427.42"/><ellipse cx="353" cy="441.1641" fill="#84BE84" rx="3" ry="3" style="stroke:#038048;stroke-width:1.0;"/><text fill="#000000" font-family="sans-serif" font-size="14" lengthAdjust="spacing" textLength="234" x="362" y="444.9552">generateChord(int): List&lt;Integer&gt;</text></g><!--class MidiSoundManager--><g id="elem_MidiSoundManager"><rect codeLine="41" fill="#F1F1F1" height="80.9766" id="MidiSoundManager" rx="2.5" ry="2.5" style="stroke:#181818;stroke-width:0.5;" width="165" x="637.5" y="379.18"/><ellipse cx="652.5" cy="395.18" fill="#ADD1B2" rx="11" ry="11" style="stroke:#181818;stroke-width:1.0;"/><path d="M654.9731,401.3231 Q654.3921,401.6219 653.7529,401.7713 Q653.1138,401.9207 652.4082,401.9207 Q649.9014,401.9207 648.5815,400.2689 Q647.2617,398.617 647.2617,395.4959 Q647.2617,392.3665 648.5815,390.7147 Q649.9014,389.0628 652.4082,389.0628 Q653.1138,389.0628 653.7612,389.2122 Q654.4087,389.3616 654.9731,389.6605 L654.9731,392.3831 Q654.3423,391.8021 653.7488,391.5323 Q653.1553,391.2625 652.5244,391.2625 Q651.1797,391.2625 650.4949,392.3292 Q649.8101,393.3958 649.8101,395.4959 Q649.8101,397.5877 650.4949,398.6544 Q651.1797,399.721 652.5244,399.721 Q653.1553,399.721 653.7488,399.4512 Q654.3423,399.1815 654.9731,398.6004 Z " fill="#000000"/><text fill="#000000" font-family="sans-serif" font-size="14" lengthAdjust="spacing" textLength="133" x="666.5" y="400.471">MidiSoundManager</text><line style="stroke:#181818;stroke-width:0.5;" x1="638.5" x2="801.5" y1="411.18" y2="411.18"/><line style="stroke:#181818;stroke-width:0.5;" x1="638.5" x2="801.5" y1="419.18" y2="419.18"/><ellipse cx="648.5" cy="432.9241" fill="#84BE84" rx="3" ry="3" style="stroke:#038048;stroke-width:1.0;"/><text fill="#000000" font-family="sans-serif" font-size="14" lengthAdjust="spacing" text-decoration="underline" textLength="89" x="657.5" y="436.7152">getInstance()</text><ellipse cx="648.5" cy="449.4124" fill="#84BE84" rx="3" ry="3" style="stroke:#038048;stroke-width:1.0;"/><text fill="#000000" font-family="sans-serif" font-size="14" lengthAdjust="spacing" textLength="88" x="657.5" y="453.2034">playNote(int)</text></g><!--class MainWindow--><g id="elem_MainWindow"><rect codeLine="48" fill="#F1F1F1" height="64.4883" id="MainWindow" rx="2.5" ry="2.5" style="stroke:#181818;stroke-width:0.5;" width="206" x="1232" y="213.47"/><ellipse cx="1287.25" cy="229.47" fill="#ADD1B2" rx="11" ry="11" style="stroke:#181818;stroke-width:1.0;"/><path d="M1289.7231,235.6131 Q1289.1421,235.9119 1288.5029,236.0613 Q1287.8638,236.2107 1287.1582,236.2107 Q1284.6514,236.2107 1283.3315,234.5589 Q1282.0117,232.907 1282.0117,229.7859 Q1282.0117,226.6565 1283.3315,225.0047 Q1284.6514,223.3528 1287.1582,223.3528 Q1287.8638,223.3528 1288.5112,223.5022 Q1289.1587,223.6516 1289.7231,223.9505 L1289.7231,226.6731 Q1289.0923,226.0921 1288.4988,225.8223 Q1287.9053,225.5525 1287.2744,225.5525 Q1285.9297,225.5525 1285.2449,226.6192 Q1284.5601,227.6858 1284.5601,229.7859 Q1284.5601,231.8777 1285.2449,232.9444 Q1285.9297,234.011 1287.2744,234.011 Q1287.9053,234.011 1288.4988,233.7412 Q1289.0923,233.4715 1289.7231,232.8904 Z " fill="#000000"/><text fill="#000000" font-family="sans-serif" font-size="14" lengthAdjust="spacing" textLength="87" x="1307.75" y="234.761">MainWindow</text><line style="stroke:#181818;stroke-width:0.5;" x1="1233" x2="1437" y1="245.47" y2="245.47"/><line style="stroke:#181818;stroke-width:0.5;" x1="1233" x2="1437" y1="253.47" y2="253.47"/><ellipse cx="1243" cy="267.2141" fill="#84BE84" rx="3" ry="3" style="stroke:#038048;stroke-width:1.0;"/><text fill="#000000" font-family="sans-serif" font-size="14" lengthAdjust="spacing" textLength="180" x="1252" y="271.0052">getPianoView(): PianoView</text></g><!--class PianoView--><g id="elem_PianoView"><rect codeLine="52" fill="#F1F1F1" height="97.4648" id="PianoView" rx="2.5" ry="2.5" style="stroke:#181818;stroke-width:0.5;" width="165" x="1315.5" y="370.93"/><ellipse cx="1358.85" cy="386.93" fill="#ADD1B2" rx="11" ry="11" style="stroke:#181818;stroke-width:1.0;"/><path d="M1361.3231,393.0731 Q1360.7421,393.3719 1360.1029,393.5213 Q1359.4638,393.6707 1358.7582,393.6707 Q1356.2514,393.6707 1354.9315,392.0189 Q1353.6117,390.367 1353.6117,387.2459 Q1353.6117,384.1165 1354.9315,382.4647 Q1356.2514,380.8128 1358.7582,380.8128 Q1359.4638,380.8128 1360.1112,380.9622 Q1360.7587,381.1116 1361.3231,381.4105 L1361.3231,384.1331 Q1360.6923,383.5521 1360.0988,383.2823 Q1359.5053,383.0125 1358.8744,383.0125 Q1357.5297,383.0125 1356.8449,384.0792 Q1356.1601,385.1458 1356.1601,387.2459 Q1356.1601,389.3377 1356.8449,390.4044 Q1357.5297,391.471 1358.8744,391.471 Q1359.5053,391.471 1360.0988,391.2012 Q1360.6923,390.9315 1361.3231,390.3504 Z " fill="#000000"/><text fill="#000000" font-family="sans-serif" font-size="14" lengthAdjust="spacing" textLength="70" x="1379.15" y="392.221">PianoView</text><line style="stroke:#181818;stroke-width:0.5;" x1="1316.5" x2="1479.5" y1="402.93" y2="402.93"/><line style="stroke:#181818;stroke-width:0.5;" x1="1316.5" x2="1479.5" y1="410.93" y2="410.93"/><ellipse cx="1326.5" cy="424.6741" fill="#84BE84" rx="3" ry="3" style="stroke:#038048;stroke-width:1.0;"/><text fill="#000000" font-family="sans-serif" font-size="14" lengthAdjust="spacing" textLength="134" x="1335.5" y="428.4652">getKeyboardPanel()</text><ellipse cx="1326.5" cy="441.1624" fill="#84BE84" rx="3" ry="3" style="stroke:#038048;stroke-width:1.0;"/><text fill="#000000" font-family="sans-serif" font-size="14" lengthAdjust="spacing" textLength="121" x="1335.5" y="444.9534">getControlPanel()</text><ellipse cx="1326.5" cy="457.6507" fill="#84BE84" rx="3" ry="3" style="stroke:#038048;stroke-width:1.0;"/><text fill="#000000" font-family="sans-serif" font-size="14" lengthAdjust="spacing" textLength="139" x="1335.5" y="461.4417">getRecordingPanel()</text></g><!--class PianoKeyboardPanel--><g id="elem_PianoKeyboardPanel"><rect codeLine="58" fill="#F1F1F1" height="64.4883" id="PianoKeyboardPanel" rx="2.5" ry="2.5" style="stroke:#181818;stroke-width:0.5;" width="172" x="1566" y="544.89"/><ellipse cx="1581" cy="560.89" fill="#ADD1B2" rx="11" ry="11" style="stroke:#181818;stroke-width:1.0;"/><path d="M1583.4731,567.0331 Q1582.8921,567.3319 1582.2529,567.4813 Q1581.6138,567.6307 1580.9082,567.6307 Q1578.4014,567.6307 1577.0815,565.9789 Q1575.7617,564.327 1575.7617,561.2059 Q1575.7617,558.0765 1577.0815,556.4247 Q1578.4014,554.7728 1580.9082,554.7728 Q1581.6138,554.7728 1582.2612,554.9222 Q1582.9087,555.0716 1583.4731,555.3705 L1583.4731,558.0931 Q1582.8423,557.5121 1582.2488,557.2423 Q1581.6553,556.9725 1581.0244,556.9725 Q1579.6797,556.9725 1578.9949,558.0392 Q1578.3101,559.1058 1578.3101,561.2059 Q1578.3101,563.2977 1578.9949,564.3644 Q1579.6797,565.431 1581.0244,565.431 Q1581.6553,565.431 1582.2488,565.1612 Q1582.8423,564.8915 1583.4731,564.3104 Z " fill="#000000"/><text fill="#000000" font-family="sans-serif" font-size="14" lengthAdjust="spacing" textLength="140" x="1595" y="566.181">PianoKeyboardPanel</text><line style="stroke:#181818;stroke-width:0.5;" x1="1567" x2="1737" y1="576.89" y2="576.89"/><line style="stroke:#181818;stroke-width:0.5;" x1="1567" x2="1737" y1="584.89" y2="584.89"/><ellipse cx="1577" cy="598.6341" fill="#84BE84" rx="3" ry="3" style="stroke:#038048;stroke-width:1.0;"/><text fill="#000000" font-family="sans-serif" font-size="14" lengthAdjust="spacing" textLength="114" x="1586" y="602.4252">highlightKey(int)</text></g><!--class ControlPanelView--><g id="elem_ControlPanelView"><rect codeLine="62" fill="#F1F1F1" height="48" id="ControlPanelView" rx="2.5" ry="2.5" style="stroke:#181818;stroke-width:0.5;" width="153" x="1203.5" y="553.13"/><ellipse cx="1218.5" cy="569.13" fill="#ADD1B2" rx="11" ry="11" style="stroke:#181818;stroke-width:1.0;"/><path d="M1220.9731,575.2731 Q1220.3921,575.5719 1219.7529,575.7213 Q1219.1138,575.8707 1218.4082,575.8707 Q1215.9014,575.8707 1214.5815,574.2189 Q1213.2617,572.567 1213.2617,569.4459 Q1213.2617,566.3165 1214.5815,564.6647 Q1215.9014,563.0128 1218.4082,563.0128 Q1219.1138,563.0128 1219.7612,563.1622 Q1220.4087,563.3116 1220.9731,563.6105 L1220.9731,566.3331 Q1220.3423,565.7521 1219.7488,565.4823 Q1219.1553,565.2125 1218.5244,565.2125 Q1217.1797,565.2125 1216.4949,566.2792 Q1215.8101,567.3458 1215.8101,569.4459 Q1215.8101,571.5377 1216.4949,572.6044 Q1217.1797,573.671 1218.5244,573.671 Q1219.1553,573.671 1219.7488,573.4012 Q1220.3423,573.1315 1220.9731,572.5504 Z " fill="#000000"/><text fill="#000000" font-family="sans-serif" font-size="14" lengthAdjust="spacing" textLength="121" x="1232.5" y="574.421">ControlPanelView</text><line style="stroke:#181818;stroke-width:0.5;" x1="1204.5" x2="1355.5" y1="585.13" y2="585.13"/><line style="stroke:#181818;stroke-width:0.5;" x1="1204.5" x2="1355.5" y1="593.13" y2="593.13"/></g><!--class RecordingPanel--><g id="elem_RecordingPanel"><rect codeLine="63" fill="#F1F1F1" height="48" id="RecordingPanel" rx="2.5" ry="2.5" style="stroke:#181818;stroke-width:0.5;" width="139" x="1391.5" y="553.13"/><ellipse cx="1406.5" cy="569.13" fill="#ADD1B2" rx="11" ry="11" style="stroke:#181818;stroke-width:1.0;"/><path d="M1408.9731,575.2731 Q1408.3921,575.5719 1407.7529,575.7213 Q1407.1138,575.8707 1406.4082,575.8707 Q1403.9014,575.8707 1402.5815,574.2189 Q1401.2617,572.567 1401.2617,569.4459 Q1401.2617,566.3165 1402.5815,564.6647 Q1403.9014,563.0128 1406.4082,563.0128 Q1407.1138,563.0128 1407.7612,563.1622 Q1408.4087,563.3116 1408.9731,563.6105 L1408.9731,566.3331 Q1408.3423,565.7521 1407.7488,565.4823 Q1407.1553,565.2125 1406.5244,565.2125 Q1405.1797,565.2125 1404.4949,566.2792 Q1403.8101,567.3458 1403.8101,569.4459 Q1403.8101,571.5377 1404.4949,572.6044 Q1405.1797,573.671 1406.5244,573.671 Q1407.1553,573.671 1407.7488,573.4012 Q1408.3423,573.1315 1408.9731,572.5504 Z " fill="#000000"/><text fill="#000000" font-family="sans-serif" font-size="14" lengthAdjust="spacing" textLength="107" x="1420.5" y="574.421">RecordingPanel</text><line style="stroke:#181818;stroke-width:0.5;" x1="1392.5" x2="1529.5" y1="585.13" y2="585.13"/><line style="stroke:#181818;stroke-width:0.5;" x1="1392.5" x2="1529.5" y1="593.13" y2="593.13"/></g><!--class PianoController--><g id="elem_PianoController"><rect codeLine="67" fill="#F1F1F1" height="64.4883" id="PianoController" rx="2.5" ry="2.5" style="stroke:#181818;stroke-width:0.5;" width="186" x="1051" y="41"/><ellipse cx="1086.7" cy="57" fill="#ADD1B2" rx="11" ry="11" style="stroke:#181818;stroke-width:1.0;"/><path d="M1089.1731,63.1431 Q1088.5921,63.4419 1087.9529,63.5913 Q1087.3138,63.7407 1086.6082,63.7407 Q1084.1014,63.7407 1082.7815,62.0889 Q1081.4617,60.437 1081.4617,57.3159 Q1081.4617,54.1865 1082.7815,52.5347 Q1084.1014,50.8828 1086.6082,50.8828 Q1087.3138,50.8828 1087.9612,51.0322 Q1088.6087,51.1816 1089.1731,51.4805 L1089.1731,54.2031 Q1088.5423,53.6221 1087.9488,53.3523 Q1087.3553,53.0825 1086.7244,53.0825 Q1085.3797,53.0825 1084.6949,54.1492 Q1084.0101,55.2158 1084.0101,57.3159 Q1084.0101,59.4077 1084.6949,60.4744 Q1085.3797,61.541 1086.7244,61.541 Q1087.3553,61.541 1087.9488,61.2712 Q1088.5423,61.0015 1089.1731,60.4204 Z " fill="#000000"/><text fill="#000000" font-family="sans-serif" font-size="14" lengthAdjust="spacing" textLength="108" x="1105.3" y="62.291">PianoController</text><line style="stroke:#181818;stroke-width:0.5;" x1="1052" x2="1236" y1="73" y2="73"/><line style="stroke:#181818;stroke-width:0.5;" x1="1052" x2="1236" y1="81" y2="81"/><ellipse cx="1062" cy="94.7441" fill="#84BE84" rx="3" ry="3" style="stroke:#038048;stroke-width:1.0;"/><text fill="#000000" font-family="sans-serif" font-size="14" lengthAdjust="spacing" textLength="160" x="1071" y="98.5352">handleNotePressed(int)</text></g><!--class RecordingController--><g id="elem_RecordingController"><rect codeLine="71" fill="#F1F1F1" height="48" id="RecordingController" rx="2.5" ry="2.5" style="stroke:#181818;stroke-width:0.5;" width="172" x="404" y="49.25"/><ellipse cx="419" cy="65.25" fill="#ADD1B2" rx="11" ry="11" style="stroke:#181818;stroke-width:1.0;"/><path d="M421.4731,71.3931 Q420.8921,71.6919 420.2529,71.8413 Q419.6138,71.9907 418.9082,71.9907 Q416.4014,71.9907 415.0815,70.3389 Q413.7617,68.687 413.7617,65.5659 Q413.7617,62.4365 415.0815,60.7847 Q416.4014,59.1328 418.9082,59.1328 Q419.6138,59.1328 420.2612,59.2822 Q420.9087,59.4316 421.4731,59.7305 L421.4731,62.4531 Q420.8423,61.8721 420.2488,61.6023 Q419.6553,61.3325 419.0244,61.3325 Q417.6797,61.3325 416.9949,62.3992 Q416.3101,63.4658 416.3101,65.5659 Q416.3101,67.6577 416.9949,68.7244 Q417.6797,69.791 419.0244,69.791 Q419.6553,69.791 420.2488,69.5212 Q420.8423,69.2515 421.4731,68.6704 Z " fill="#000000"/><text fill="#000000" font-family="sans-serif" font-size="14" lengthAdjust="spacing" textLength="140" x="433" y="70.541">RecordingController</text><line style="stroke:#181818;stroke-width:0.5;" x1="405" x2="575" y1="81.25" y2="81.25"/><line style="stroke:#181818;stroke-width:0.5;" x1="405" x2="575" y1="89.25" y2="89.25"/></g><!--class PlaybackController--><g id="elem_PlaybackController"><rect codeLine="72" fill="#F1F1F1" height="48" id="PlaybackController" rx="2.5" ry="2.5" style="stroke:#181818;stroke-width:0.5;" width="161" x="611.5" y="49.25"/><ellipse cx="626.5" cy="65.25" fill="#ADD1B2" rx="11" ry="11" style="stroke:#181818;stroke-width:1.0;"/><path d="M628.9731,71.3931 Q628.3921,71.6919 627.7529,71.8413 Q627.1138,71.9907 626.4082,71.9907 Q623.9014,71.9907 622.5815,70.3389 Q621.2617,68.687 621.2617,65.5659 Q621.2617,62.4365 622.5815,60.7847 Q623.9014,59.1328 626.4082,59.1328 Q627.1138,59.1328 627.7612,59.2822 Q628.4087,59.4316 628.9731,59.7305 L628.9731,62.4531 Q628.3423,61.8721 627.7488,61.6023 Q627.1553,61.3325 626.5244,61.3325 Q625.1797,61.3325 624.4949,62.3992 Q623.8101,63.4658 623.8101,65.5659 Q623.8101,67.6577 624.4949,68.7244 Q625.1797,69.791 626.5244,69.791 Q627.1553,69.791 627.7488,69.5212 Q628.3423,69.2515 628.9731,68.6704 Z " fill="#000000"/><text fill="#000000" font-family="sans-serif" font-size="14" lengthAdjust="spacing" textLength="129" x="640.5" y="70.541">PlaybackController</text><line style="stroke:#181818;stroke-width:0.5;" x1="612.5" x2="771.5" y1="81.25" y2="81.25"/><line style="stroke:#181818;stroke-width:0.5;" x1="612.5" x2="771.5" y1="89.25" y2="89.25"/></g><!--class RecordingPanelController--><g id="elem_RecordingPanelController"><rect codeLine="73" fill="#F1F1F1" height="48" id="RecordingPanelController" rx="2.5" ry="2.5" style="stroke:#181818;stroke-width:0.5;" width="209" x="807.5" y="49.25"/><ellipse cx="822.5" cy="65.25" fill="#ADD1B2" rx="11" ry="11" style="stroke:#181818;stroke-width:1.0;"/><path d="M824.9731,71.3931 Q824.3921,71.6919 823.7529,71.8413 Q823.1138,71.9907 822.4082,71.9907 Q819.9014,71.9907 818.5815,70.3389 Q817.2617,68.687 817.2617,65.5659 Q817.2617,62.4365 818.5815,60.7847 Q819.9014,59.1328 822.4082,59.1328 Q823.1138,59.1328 823.7612,59.2822 Q824.4087,59.4316 824.9731,59.7305 L824.9731,62.4531 Q824.3423,61.8721 823.7488,61.6023 Q823.1553,61.3325 822.5244,61.3325 Q821.1797,61.3325 820.4949,62.3992 Q819.8101,63.4658 819.8101,65.5659 Q819.8101,67.6577 820.4949,68.7244 Q821.1797,69.791 822.5244,69.791 Q823.1553,69.791 823.7488,69.5212 Q824.3423,69.2515 824.9731,68.6704 Z " fill="#000000"/><text fill="#000000" font-family="sans-serif" font-size="14" lengthAdjust="spacing" textLength="177" x="836.5" y="70.541">RecordingPanelController</text><line style="stroke:#181818;stroke-width:0.5;" x1="808.5" x2="1015.5" y1="81.25" y2="81.25"/><line style="stroke:#181818;stroke-width:0.5;" x1="808.5" x2="1015.5" y1="89.25" y2="89.25"/></g><!--class KeyChordApp--><g id="elem_KeyChordApp"><rect codeLine="76" fill="#F1F1F1" height="64.4883" id="KeyChordApp" rx="2.5" ry="2.5" style="stroke:#181818;stroke-width:0.5;" width="127" x="1271.5" y="41"/><ellipse cx="1286.5" cy="57" fill="#ADD1B2" rx="11" ry="11" style="stroke:#181818;stroke-width:1.0;"/><path d="M1288.9731,63.1431 Q1288.3921,63.4419 1287.7529,63.5913 Q1287.1138,63.7407 1286.4082,63.7407 Q1283.9014,63.7407 1282.5815,62.0889 Q1281.2617,60.437 1281.2617,57.3159 Q1281.2617,54.1865 1282.5815,52.5347 Q1283.9014,50.8828 1286.4082,50.8828 Q1287.1138,50.8828 1287.7612,51.0322 Q1288.4087,51.1816 1288.9731,51.4805 L1288.9731,54.2031 Q1288.3423,53.6221 1287.7488,53.3523 Q1287.1553,53.0825 1286.5244,53.0825 Q1285.1797,53.0825 1284.4949,54.1492 Q1283.8101,55.2158 1283.8101,57.3159 Q1283.8101,59.4077 1284.4949,60.4744 Q1285.1797,61.541 1286.5244,61.541 Q1287.1553,61.541 1287.7488,61.2712 Q1288.3423,61.0015 1288.9731,60.4204 Z " fill="#000000"/><text fill="#000000" font-family="sans-serif" font-size="14" lengthAdjust="spacing" textLength="95" x="1300.5" y="62.291">KeyChordApp</text><line style="stroke:#181818;stroke-width:0.5;" x1="1272.5" x2="1397.5" y1="73" y2="73"/><line style="stroke:#181818;stroke-width:0.5;" x1="1272.5" x2="1397.5" y1="81" y2="81"/><ellipse cx="1282.5" cy="94.7441" fill="#84BE84" rx="3" ry="3" style="stroke:#038048;stroke-width:1.0;"/><text fill="#000000" font-family="sans-serif" font-size="14" lengthAdjust="spacing" text-decoration="underline" textLength="95" x="1291.5" y="98.5352">main(String[])</text></g><!--reverse link PianoModel to Recorder--><g id="link_PianoModel_Recorder"><path codeLine="81" d="M792.7743,320.6019 C806.9243,338.4919 812.45,349.52 820,370.93 C834.4,411.79 841.32,430.69 820,468.4 C803.49,497.61 775.54,519.77 746.57,536.17 " fill="none" id="PianoModel-backto-Recorder" style="stroke:#181818;stroke-width:1.0;"/><polygon fill="#181818" points="785.33,311.19,785.9148,318.3773,792.7743,320.6019,792.1894,313.4145,785.33,311.19" style="stroke:#181818;stroke-width:1.0;"/></g><!--reverse link PianoModel to Player--><g id="link_PianoModel_Player"><path codeLine="82" d="M828.4417,310.7938 C869.6917,335.1638 906.32,356.81 943.57,378.82 " fill="none" id="PianoModel-backto-Player" style="stroke:#181818;stroke-width:1.0;"/><polygon fill="#181818" points="818.11,304.69,821.2412,311.1858,828.4417,310.7938,825.3104,304.298,818.11,304.69" style="stroke:#181818;stroke-width:1.0;"/></g><!--reverse link PianoModel to ChordManager--><g id="link_PianoModel_ChordManager"><path codeLine="83" d="M617.088,318.0667 C579.698,343.9867 548.17,365.85 517.58,387.06 " fill="none" id="PianoModel-backto-ChordManager" style="stroke:#181818;stroke-width:1.0;"/><polygon fill="#181818" points="626.95,311.23,619.7401,311.361,617.088,318.0667,624.2979,317.9357,626.95,311.23" style="stroke:#181818;stroke-width:1.0;"/></g><!--reverse link PianoModel to RecordingManager--><g id="link_PianoModel_RecordingManager"><path codeLine="84" d="M610.1591,280.6163 C530.1391,305.4463 425.83,338.13 325,370.93 C317.21,373.47 309.19,376.1 301.1,378.77 " fill="none" id="PianoModel-backto-RecordingManager" style="stroke:#181818;stroke-width:1.0;"/><polygon fill="#181818" points="621.62,277.06,614.7041,275.0178,610.1591,280.6163,617.075,282.6585,621.62,277.06" style="stroke:#181818;stroke-width:1.0;"/></g><!--link PianoModel to MidiSoundManager--><g id="link_PianoModel_MidiSoundManager"><path codeLine="85" d="M720,311.23 C720,333.91 720,352.72 720,372.78 " fill="none" id="PianoModel-to-MidiSoundManager" style="stroke:#181818;stroke-width:1.0;"/><polygon fill="#181818" points="720,378.78,724,369.78,720,373.78,716,369.78,720,378.78" style="stroke:#181818;stroke-width:1.0;"/></g><!--link PianoModel to Recording--><g id="link_PianoModel_Recording"><path codeLine="86" d="M621.55,249.86 C451.67,257.58 114.64,283.78 42,370.93 C14.27,404.21 22.8,429.57 42,468.4 C53.74,492.15 68.7338,508.4685 89.8038,524.4885 " fill="none" id="PianoModel-to-Recording" style="stroke:#181818;stroke-width:1.0;stroke-dasharray:7.0,7.0;"/><polygon fill="#181818" points="94.58,528.12,89.8366,519.4886,90.5998,525.0938,84.9947,525.8569,94.58,528.12" style="stroke:#181818;stroke-width:1.0;"/></g><!--reverse link RecordingManager to Recording--><g id="link_RecordingManager_Recording"><path codeLine="88" d="M183,472.3 C183,492.9 183,506.24 183,527.97 " fill="none" id="RecordingManager-backto-Recording" style="stroke:#181818;stroke-width:1.0;"/><polygon fill="#181818" points="183,460.3,179,466.3,183,472.3,187,466.3,183,460.3" style="stroke:#181818;stroke-width:1.0;"/></g><!--reverse link Recording to NoteEvent--><g id="link_Recording_NoteEvent"><path codeLine="89" d="M268.0739,632.8294 C297.8139,651.9494 321.52,667.18 349.86,685.4 " fill="none" id="Recording-backto-NoteEvent" style="stroke:#181818;stroke-width:1.0;"/><polygon fill="#181818" points="257.98,626.34,260.8638,632.9494,268.0739,632.8294,265.1901,626.2201,257.98,626.34" style="stroke:#181818;stroke-width:1.0;"/></g><!--link Recorder to NoteEvent--><g id="link_Recorder_NoteEvent"><path codeLine="90" d="M579.03,617.97 C546.44,638.92 511.6571,661.2855 479.0671,682.2355 " fill="none" id="Recorder-to-NoteEvent" style="stroke:#181818;stroke-width:1.0;stroke-dasharray:7.0,7.0;"/><polygon fill="#181818" points="474.02,685.48,483.7537,683.978,478.2259,682.7763,479.4277,677.2486,474.02,685.48" style="stroke:#181818;stroke-width:1.0;"/></g><!--reverse link MainWindow to PianoView--><g id="link_MainWindow_PianoView"><path codeLine="92" d="M1350.6861,289.5183 C1360.1661,315.4083 1369.62,341.21 1380.45,370.76 " fill="none" id="MainWindow-backto-PianoView" style="stroke:#181818;stroke-width:1.0;"/><polygon fill="#181818" points="1346.56,278.25,1344.8669,285.2595,1350.6861,289.5183,1352.3791,282.5088,1346.56,278.25" style="stroke:#181818;stroke-width:1.0;"/></g><!--reverse link PianoView to PianoKeyboardPanel--><g id="link_PianoView_PianoKeyboardPanel"><path codeLine="93" d="M1486.8652,475.0543 C1527.0752,499.6643 1564.66,522.67 1600.2,544.43 " fill="none" id="PianoView-backto-PianoKeyboardPanel" style="stroke:#181818;stroke-width:1.0;"/><polygon fill="#181818" points="1476.63,468.79,1479.6595,475.3339,1486.8652,475.0543,1483.8357,468.5104,1476.63,468.79" style="stroke:#181818;stroke-width:1.0;"/></g><!--reverse link PianoView to ControlPanelView--><g id="link_PianoView_ControlPanelView"><path codeLine="94" d="M1354.375,478.1385 C1333.115,506.1485 1314.48,530.7 1297.64,552.89 " fill="none" id="PianoView-backto-ControlPanelView" style="stroke:#181818;stroke-width:1.0;"/><polygon fill="#181818" points="1361.63,468.58,1354.8163,470.9409,1354.375,478.1385,1361.1886,475.7776,1361.63,468.58" style="stroke:#181818;stroke-width:1.0;"/></g><!--reverse link PianoView to RecordingPanel--><g id="link_PianoView_RecordingPanel"><path codeLine="95" d="M1421.9266,479.7016 C1433.2766,507.7116 1442.59,530.7 1451.58,552.89 " fill="none" id="PianoView-backto-RecordingPanel" style="stroke:#181818;stroke-width:1.0;"/><polygon fill="#181818" points="1417.42,468.58,1415.9661,475.643,1421.9266,479.7016,1423.3805,472.6386,1417.42,468.58" style="stroke:#181818;stroke-width:1.0;"/></g><!--link PianoController to PianoModel--><g id="link_PianoController_PianoModel"><path codeLine="97" d="M1084.07,105.89 C1067.98,113.96 1050.47,122.36 1034,129.49 C962.99,160.23 886.4988,188.2242 824.0388,209.8842 " fill="none" id="PianoController-to-PianoModel" style="stroke:#181818;stroke-width:1.0;stroke-dasharray:7.0,7.0;"/><polygon fill="#181818" points="818.37,211.85,828.1838,212.6804,823.094,210.2118,825.5627,205.122,818.37,211.85" style="stroke:#181818;stroke-width:1.0;"/></g><!--link PianoController to MainWindow--><g id="link_PianoController_MainWindow"><path codeLine="98" d="M1179.48,105.91 C1213.78,136.53 1260.9936,178.6647 1295.2336,209.2247 " fill="none" id="PianoController-to-MainWindow" style="stroke:#181818;stroke-width:1.0;stroke-dasharray:7.0,7.0;"/><polygon fill="#181818" points="1299.71,213.22,1295.659,204.2429,1295.9797,209.8906,1290.3319,210.2114,1299.71,213.22" style="stroke:#181818;stroke-width:1.0;"/></g><!--link RecordingController to PianoModel--><g id="link_RecordingController_PianoModel"><path codeLine="99" d="M521.5,97.59 C550.1,118.79 588.8398,147.5071 627.8698,176.4371 " fill="none" id="RecordingController-to-PianoModel" style="stroke:#181818;stroke-width:1.0;stroke-dasharray:7.0,7.0;"/><polygon fill="#181818" points="632.69,180.01,627.8416,171.4372,628.6731,177.0326,623.0777,177.8642,632.69,180.01" style="stroke:#181818;stroke-width:1.0;"/></g><!--link PlaybackController to PianoModel--><g id="link_PlaybackController_PianoModel"><path codeLine="100" d="M695.83,97.59 C699.32,118.84 703.6672,145.2994 708.4272,174.2694 " fill="none" id="PlaybackController-to-PianoModel" style="stroke:#181818;stroke-width:1.0;stroke-dasharray:7.0,7.0;"/><polygon fill="#181818" points="709.4,180.19,711.8879,170.6605,708.5893,175.2562,703.9937,171.9576,709.4,180.19" style="stroke:#181818;stroke-width:1.0;"/></g><!--link RecordingPanelController to PianoModel--><g id="link_RecordingPanelController_PianoModel"><path codeLine="101" d="M885.71,97.59 C861.78,118.84 829.7974,147.2371 797.1574,176.2071 " fill="none" id="RecordingPanelController-to-PianoModel" style="stroke:#181818;stroke-width:1.0;stroke-dasharray:7.0,7.0;"/><polygon fill="#181818" points="792.67,180.19,802.0564,177.2073,796.4095,176.871,796.7459,171.2241,792.67,180.19" style="stroke:#181818;stroke-width:1.0;"/></g><!--link KeyChordApp to MainWindow--><g id="link_KeyChordApp_MainWindow"><path codeLine="103" d="M1335,105.91 C1335,136.53 1335,176.66 1335,207.22 " fill="none" id="KeyChordApp-to-MainWindow" style="stroke:#181818;stroke-width:1.0;stroke-dasharray:7.0,7.0;"/><polygon fill="#181818" points="1335,213.22,1339,204.22,1335,208.22,1331,204.22,1335,213.22" style="stroke:#181818;stroke-width:1.0;"/></g><!--link KeyChordApp to PianoModel--><g id="link_KeyChordApp_PianoModel"><path codeLine="104" d="M1296.21,105.85 C1283.19,114.91 1268.12,123.86 1253,129.49 C1225.31,139.81 1216.11,132.4 1187,137.49 C1058.56,159.96 918.1356,193.6339 824.0556,217.5139 " fill="none" id="KeyChordApp-to-PianoModel" style="stroke:#181818;stroke-width:1.0;stroke-dasharray:7.0,7.0;"/><polygon fill="#181818" points="818.24,218.99,827.9475,220.6528,823.0863,217.7599,825.9793,212.8987,818.24,218.99" style="stroke:#181818;stroke-width:1.0;"/></g><!--SRC=[ZLJDQjj04BxhAKGkbTiw3n2AeRY6cbgsSK9oA3rif45UAk-ArROX14CBBJsLNalfiUIGQsujz6qIjs_HtPMyVrgR2coa-MPdlftvPYgKlKO5n0VfxDbeSX1VHR5uiXBLTJp7YD2Kvb2sPlaygZbYV04PPJacHTAp4Le5WQf4brFA8S64U-RXKhXxTfLXBi1pGIxH4HkFjVgtM3OuiF_Zo9HHafaHbVOebX-Zjq1uEBua4eYk-QcZn_GDo-1n_1oHl0Jc5KNxxhs2O6fdAO1FqGeImV2OCm4Q2EMv9ftejvvpLfbgUNg2Q_v4Umt253JkKKXnZbNhH23SbcYBdU0LY5giAWcMj6Mu-tOf8a9gUnjrPBoTLCQbgKN7iPDL2IkGiG02374mmcihD2OSXE-E-iWwY2QJKCWhSGkEitKiY8w9-20Px9V_Ebf7KRKTlTFnwCoTl1HXSeP9JY-yTgYHFCLm8KkbFtO8TmjxCLx0vJb5B9yZ0cNYgcP82MUq346wtZOOJkfaiBClSR4inKzoiAlXzyvYeU_dYKc1JXc7i-d9OZQPZ1Q1DTQ6BDtEBTMuojxC6TGrv7j8wSmcbBSbv8W7GPUqvIBeDnwY7agGJwkgvMTKjH9YQ6N_ybLFddaGttsvkV_wU_FZv_ttTty_VVvp_NxpxSFTnzlDxQ_8MjiF-tsz7trxizTygpqsuKXca6sytnzqPiJ63my7riH6dPtWn3Umifi5hNUz36VCaJKlwcfwCCmCQBiZJi-X8pmNziGN-SgIhCoTWx1X6WK4rOdGKPNliKjQlbzaAymZuaFMiNy0]--></g></svg>